<svg width="48" height="48" viewBox="0 0 48 48" fill="none" xmlns="http://www.w3.org/2000/svg">
<g clip-path="url(#clip0_56_6176)">
<mask id="mask0_56_6176" style="mask-type:luminance" maskUnits="userSpaceOnUse" x="-1" y="9" width="49" height="29">
<path d="M-0.267578 9.59961H47.7324V37.876H-0.267578V9.59961Z" fill="white"/>
</mask>
<g mask="url(#mask0_56_6176)">
<path fill-rule="evenodd" clip-rule="evenodd" d="M23.7324 9.59961C17.3324 9.59961 13.3324 12.7414 11.7324 19.0251C14.1324 15.8832 16.9324 14.7051 20.1324 15.4905C21.9582 15.9382 23.2631 17.2395 24.7075 18.6786C27.0604 21.0236 29.784 23.7378 35.7324 23.7378C42.1324 23.7378 46.1324 20.596 47.7324 14.3123C45.3324 17.4542 42.5324 18.6323 39.3324 17.8469C37.5066 17.3992 36.2018 16.0979 34.7573 14.6588C32.4044 12.3138 29.6809 9.59961 23.7324 9.59961ZM11.7324 23.7378C5.33242 23.7378 1.33242 26.8796 -0.267578 33.1632C2.13242 30.0214 4.93242 28.8432 8.13242 29.6287C9.9582 30.0773 11.2631 31.3776 12.7075 32.8168C15.0604 35.1618 17.784 37.876 23.7324 37.876C30.1324 37.876 34.1324 34.7342 35.7324 28.4505C33.3324 31.5923 30.5324 32.7705 27.3324 31.9851C25.5066 31.5374 24.2018 30.2361 22.7573 28.797C20.4044 26.452 17.6809 23.7378 11.7324 23.7378Z" fill="#38BDF8"/>
</g>
</g>
<defs>
<clipPath id="clip0_56_6176">
<rect width="48" height="48" fill="white"/>
</clipPath>
</defs>
</svg>
