<svg width="48" height="48" viewBox="0 0 48 48" fill="none" xmlns="http://www.w3.org/2000/svg">
<g clip-path="url(#clip0_56_6204)">
<path d="M47.9909 23.4722C47.8604 15.4472 43.3859 7.63372 36.4634 3.51922C31.0094 0.122467 24.1199 -0.791783 17.9144 0.775717C8.57466 3.12697 1.12866 11.5855 0.182161 21.226C-0.993839 30.331 3.61116 39.8005 11.4809 44.47C19.1879 49.303 29.6707 49.1072 37.2059 44.02C43.9987 39.6115 48.2114 31.57 47.9834 23.479L47.9909 23.4722ZM25.3274 44.4385C14.4202 45.5162 3.87216 36.2747 3.57741 25.3345C2.75241 16.4522 8.60616 7.66747 16.9664 4.72822C28.6904 0.0257169 43.0919 8.71222 44.3002 21.286C46.1947 32.584 36.7897 44.086 25.3274 44.4385ZM18.1499 22.786L33.9224 9.88597L25.3994 22.8182C22.9829 22.8182 20.5664 22.819 18.1499 22.786ZM22.5847 25.171L29.8342 25.204L14.0617 38.1362L22.5847 25.171Z" fill="#F9FAFB"/>
</g>
<defs>
<clipPath id="clip0_56_6204">
<rect width="48" height="48" fill="white"/>
</clipPath>
</defs>
</svg>
