<svg width="54" height="48" viewBox="0 0 54 48" fill="none" xmlns="http://www.w3.org/2000/svg">
<g clip-path="url(#clip0_56_6184)">
<path d="M27.0007 29.0787C29.7549 29.0787 31.9877 26.8045 31.9877 23.9993C31.9877 21.194 29.7549 18.9199 27.0007 18.9199C24.2464 18.9199 22.0137 21.194 22.0137 23.9993C22.0137 26.8045 24.2464 29.0787 27.0007 29.0787Z" fill="#087EA4"/>
<path d="M26.9995 35.4275C40.7708 35.4275 51.9346 30.3107 51.9346 23.9989C51.9346 17.6871 40.7708 12.5703 26.9995 12.5703C13.2283 12.5703 2.06445 17.6871 2.06445 23.9989C2.06445 30.3107 13.2283 35.4275 26.9995 35.4275Z" stroke="#087EA4" stroke-width="3"/>
<path d="M17.2826 29.7139C24.1682 41.861 34.1008 49.1498 39.4676 45.9939C44.8344 42.838 43.6032 30.4324 36.7175 18.2853C29.8319 6.1382 19.8993 -1.15061 14.5325 2.0053C9.1657 5.16122 10.3969 17.5668 17.2826 29.7139Z" stroke="#087EA4" stroke-width="3"/>
<path d="M17.2811 18.2845C10.3955 30.4316 9.16423 42.8371 14.531 45.9931C19.8979 49.149 29.8304 41.8602 36.7161 29.713C43.6017 17.5659 44.8329 5.16038 39.4661 2.00446C34.0993 -1.15145 24.1667 6.13736 17.2811 18.2845Z" stroke="#087EA4" stroke-width="3"/>
</g>
<defs>
<clipPath id="clip0_56_6184">
<rect width="52.3636" height="48" fill="white" transform="translate(0.818359)"/>
</clipPath>
</defs>
</svg>
