<svg width="32" height="48" viewBox="0 0 32 48" fill="none" xmlns="http://www.w3.org/2000/svg">
<g clip-path="url(#clip0_56_6117)">
<path d="M16 24C16 21.8783 16.8429 19.8434 18.3431 18.3431C19.8434 16.8429 21.8783 16 24 16C26.1217 16 28.1566 16.8429 29.6569 18.3431C31.1571 19.8434 32 21.8783 32 24C32 26.1217 31.1571 28.1566 29.6569 29.6569C28.1566 31.1571 26.1217 32 24 32C21.8783 32 19.8434 31.1571 18.3431 29.6569C16.8429 28.1566 16 26.1217 16 24Z" fill="#1ABCFE"/>
<path d="M0 40C0 37.8783 0.842855 35.8434 2.34315 34.3431C3.84344 32.8429 5.87827 32 8 32H16V40C16 42.1217 15.1571 44.1566 13.6569 45.6569C12.1566 47.1571 10.1217 48 8 48C5.87827 48 3.84344 47.1571 2.34315 45.6569C0.842855 44.1566 0 42.1217 0 40Z" fill="#0ACF83"/>
<path d="M16 0V16H24C26.1217 16 28.1566 15.1571 29.6569 13.6569C31.1571 12.1566 32 10.1217 32 8C32 5.87827 31.1571 3.84344 29.6569 2.34315C28.1566 0.842855 26.1217 0 24 0L16 0Z" fill="#FF7262"/>
<path d="M0 8C0 10.1217 0.842855 12.1566 2.34315 13.6569C3.84344 15.1571 5.87827 16 8 16H16V0H8C5.87827 0 3.84344 0.842855 2.34315 2.34315C0.842855 3.84344 0 5.87827 0 8Z" fill="#F24E1E"/>
<path d="M0 24C0 26.1217 0.842855 28.1566 2.34315 29.6569C3.84344 31.1571 5.87827 32 8 32H16V16H8C5.87827 16 3.84344 16.8429 2.34315 18.3431C0.842855 19.8434 0 21.8783 0 24Z" fill="#A259FF"/>
</g>
<defs>
<clipPath id="clip0_56_6117">
<rect width="32" height="48" fill="white"/>
</clipPath>
</defs>
</svg>
