<svg width="97" height="22" viewBox="0 0 97 22" fill="none" xmlns="http://www.w3.org/2000/svg">
<path d="M8.02683 0H0V4.41717C0 6.05552 1.3357 7.38415 2.98278 7.38415V2.50866H7.39632C9.38484 2.50866 10.4519 3.52178 10.4519 5.28266C10.4519 7.33301 9.11809 8.08079 7.39632 8.08079H2.98278C1.3357 8.08079 0 9.40941 0 11.0478V17.2229H2.98278V10.5904H8.02683C11.5431 10.5904 13.4589 8.41945 13.4589 5.28363C13.4589 2.1478 11.5441 0 8.02683 0Z" fill="black"/>
<path d="M14.1767 13.678C14.1767 11.4347 15.9712 10.301 19.0752 10.0356C21.67 9.84264 22.6895 9.55318 22.6895 8.4677C22.6895 7.30985 21.6467 6.63445 20.1917 6.63445C18.5912 6.63445 17.4999 7.23749 17.4029 8.8054H14.7112C14.7112 6.44147 16.9179 4.43937 20.1917 4.43937C23.126 4.43937 25.4298 5.81431 25.4298 8.87777V15.0529H26.4483V17.2239H24.4598C23.5868 17.2239 22.8593 16.5485 22.8593 15.6801V15.3424H22.7865C21.7437 16.7656 20.1432 17.5375 18.4215 17.5375C15.8509 17.5375 14.1767 16.066 14.1767 13.678ZM19.0752 15.3424C20.894 15.3424 22.7128 14.0881 22.7128 11.7724V11.0005C21.9853 11.5312 20.8455 11.7241 19.633 11.8447C17.9112 12.0377 16.9897 12.5925 16.9897 13.678C16.9897 14.7635 17.9112 15.3424 19.0752 15.3424Z" fill="black"/>
<path d="M27.5648 19.7084H30.4263L31.3963 17.248L26.4735 4.75199H29.3593L32.6573 14.0147H32.7301L36.0281 4.75199H38.8896L32.5846 20.6492C32.2693 21.4452 31.4448 22 30.5718 22H27.5648V19.7084Z" fill="black"/>
<path d="M42.7474 6.68173H42.8201C43.5476 5.11381 45.1481 4.4384 46.7487 4.4384C49.9739 4.4384 51.0652 6.3199 51.0652 8.97329V17.2229H48.3249V9.11802C48.3249 7.69484 47.5247 6.75409 46.0696 6.75409C43.8629 6.75409 42.7474 8.39437 42.7474 10.493V17.2239H40.0071V4.09568e-07H42.7474V6.68173Z" fill="black"/>
<path d="M52.9577 13.678C52.9577 11.4347 54.7522 10.301 57.8562 10.0356C60.451 9.84264 61.4705 9.55318 61.4705 8.4677C61.4705 7.30985 60.4277 6.63445 58.9727 6.63445C57.3722 6.63445 56.2809 7.23749 56.1839 8.8054H53.4922C53.4922 6.44147 55.6989 4.43937 58.9727 4.43937C61.907 4.43937 64.2108 5.81431 64.2108 8.87777V15.0529H65.2293V17.2239H63.2408C62.3677 17.2239 61.6402 16.5485 61.6402 15.6801V15.3424H61.5675C60.5247 16.7656 58.9242 17.5375 57.2024 17.5375C54.6319 17.5375 52.9577 16.066 52.9577 13.678ZM57.8562 15.3424C59.675 15.3424 61.4938 14.0881 61.4938 11.7724V11.0005C60.7663 11.5312 59.6265 11.7241 58.414 11.8447C56.6922 12.0377 55.7707 12.5925 55.7707 13.678C55.7707 14.7635 56.6922 15.3424 57.8562 15.3424Z" fill="black"/>
<path d="M65.4 4.75199H68.3343L70.9533 14.3534H71.026L73.4511 4.75199H76.0701L78.4951 14.3534H78.5679L81.1869 4.75199H84.1454L80.1684 17.2239H77.0644L74.8091 8.39437H74.7363L72.4568 17.2239H69.3528L65.4 4.75199Z" fill="black"/>
<path d="M85.2629 4.09568e-07H88.0032V10.9522L93.5565 4.75198H96.8545L91.8105 10.107L97 17.2229H93.799L90.1372 11.9161L88.0032 14.1836V17.2229H85.2629V4.09568e-07Z" fill="black"/>
</svg>
